<svg width="8" height="9" viewBox="0 0 8 9" fill="none" xmlns="http://www.w3.org/2000/svg">
<path d="M4 0.599121C1.79 0.599121 0 2.39012 0 4.59912C0 6.36679 1.146 7.86579 2.735 8.39412C2.935 8.43179 3.00833 8.30812 3.00833 8.20179C3.00833 8.10679 3.005 7.85512 3.00333 7.52179C1.89067 7.76312 1.656 6.98512 1.656 6.98512C1.474 6.52345 1.211 6.40012 1.211 6.40012C0.848667 6.15212 1.239 6.15712 1.239 6.15712C1.64067 6.18512 1.85167 6.56912 1.85167 6.56912C2.20833 7.18079 2.788 7.00412 3.01667 6.90179C3.05267 6.64312 3.15567 6.46679 3.27 6.36679C2.38167 6.26679 1.448 5.92279 1.448 4.39012C1.448 3.95345 1.603 3.59679 1.85967 3.31679C1.81467 3.21579 1.67967 2.80912 1.89467 2.25812C1.89467 2.25812 2.22967 2.15079 2.99467 2.66812C3.31467 2.57912 3.65467 2.53512 3.99467 2.53312C4.33467 2.53512 4.67467 2.57912 4.99467 2.66812C5.75467 2.15079 6.08967 2.25812 6.08967 2.25812C6.30467 2.80912 6.16967 3.21579 6.12967 3.31679C6.38467 3.59679 6.53967 3.95345 6.53967 4.39012C6.53967 5.92679 5.60467 6.26512 4.71467 6.36345C4.85467 6.48345 4.98467 6.72879 4.98467 7.10345C4.98467 7.63879 4.97967 8.06879 4.97967 8.19879C4.97967 8.30379 5.04967 8.42879 5.25467 8.38879C6.855 7.86412 8 6.36412 8 4.59912C8 2.39012 6.209 0.599121 4 0.599121" fill="black"/>
</svg>
